<svg width="48" height="48" viewBox="0 0 48 48" fill="none" xmlns="http://www.w3.org/2000/svg">
<rect width="48" height="48" rx="6" fill="#FF5101"/>
<path d="M22.3005 24.8922V33.4683H22.7525C24.2592 33.4683 25.3591 33.2084 26.0522 32.6887C26.7754 32.14 27.137 31.1871 27.137 29.83C27.137 28.5883 26.7905 27.621 26.0974 26.928C27.4836 26.6392 28.7492 26.2638 29.8944 25.8018C31.0395 25.3398 32.0038 24.7334 32.7873 23.9827C34.0529 24.7046 34.957 25.6286 35.4994 26.7547C36.0418 27.852 36.313 29.2092 36.313 30.8262C36.313 33.5116 35.2884 35.5762 33.2393 37.02C31.1901 38.4638 28.0712 39.1857 23.8825 39.1857H13.4861V16.0996H22.3005V20.8208H22.7073C24.0633 20.8208 25.0427 20.5753 25.6454 20.0845C26.2782 19.5647 26.5946 18.6695 26.5946 17.399C26.5946 16.0996 26.2782 15.2045 25.6454 14.7136C25.0427 14.1938 24.0633 13.9339 22.7073 13.9339H13.4861L11 8H24.5605C28.2068 8 30.8587 8.72189 32.5161 10.1657C34.1735 11.6095 35.0022 13.6308 35.0022 16.2296C35.0022 17.8755 34.6104 19.2615 33.8269 20.3877C33.0736 21.4849 32.064 22.3656 30.7984 23.0298C29.5327 23.6939 28.1616 24.1704 26.685 24.4591C25.2084 24.7479 23.7469 24.8922 22.3005 24.8922Z" fill="white"/>
</svg>
